inDegrees=no
num_controls=7
num_derivatives=13
num_iterations=158
num_multipliers=7
num_parameters=0
num_slacks=7
num_states=26
objective=5.887951
objective_accelerations=0.873825
objective_balance=0.063471
objective_effort=0.335751
objective_height=4.502147
objective_ligament=0.112756
solver_duration=1761.617432
status=Solve_Succeeded
success=true
DataType=double
version=3
OpenSimVersion=4.4-2022-07-23-0e9fedc
endheader
time	/jointset/ground_pelvis/pelvis_tilt/value	/jointset/ground_pelvis/pelvis_tx/value	/jointset/ground_pelvis/pelvis_ty/value	/jointset/hip_l/hip_flexion_l/value	/jointset/hip_l/hip_adduction_l/value	/jointset/hip_l/hip_rotation_l/value	/jointset/back/lumbar_extension/value	/jointset/patellofemoral_l/patellar_flexion_l/value	/jointset/knee_l/knee_flexion_l/value	/jointset/knee_l/knee_adduction_l/value	/jointset/knee_l/knee_rotation_l/value	/jointset/ankle_l/ankle_angle_l/value	/jointset/subtalar_l/subtalar_angle_l/value	/jointset/ground_pelvis/pelvis_tilt/speed	/jointset/ground_pelvis/pelvis_tx/speed	/jointset/ground_pelvis/pelvis_ty/speed	/jointset/hip_l/hip_flexion_l/speed	/jointset/hip_l/hip_adduction_l/speed	/jointset/hip_l/hip_rotation_l/speed	/jointset/back/lumbar_extension/speed	/jointset/patellofemoral_l/patellar_flexion_l/speed	/jointset/knee_l/knee_flexion_l/speed	/jointset/knee_l/knee_adduction_l/speed	/jointset/knee_l/knee_rotation_l/speed	/jointset/ankle_l/ankle_angle_l/speed	/jointset/subtalar_l/subtalar_angle_l/speed	/forceset/tau_hip_flexion_l	/forceset/tau_hip_adduction_l	/forceset/tau_hip_rotation_l	/forceset/tau_knee_flexion_l	/forceset/tau_ankle_angle_l	/forceset/tau_subtalar_angle_l	/forceset/tau_lumbar_extension	lambda_cid13_p0	lambda_cid13_p1	lambda_cid13_p2	lambda_cid13_p3	lambda_cid13_p4	lambda_cid13_p5	lambda_cid14_p0	/jointset/ground_pelvis/pelvis_tilt/accel	/jointset/ground_pelvis/pelvis_tx/accel	/jointset/ground_pelvis/pelvis_ty/accel	/jointset/hip_l/hip_flexion_l/accel	/jointset/hip_l/hip_adduction_l/accel	/jointset/hip_l/hip_rotation_l/accel	/jointset/back/lumbar_extension/accel	/jointset/patellofemoral_l/patellar_flexion_l/accel	/jointset/knee_l/knee_flexion_l/accel	/jointset/knee_l/knee_adduction_l/accel	/jointset/knee_l/knee_rotation_l/accel	/jointset/ankle_l/ankle_angle_l/accel	/jointset/subtalar_l/subtalar_angle_l/accel	gamma_cid13_p0	gamma_cid13_p1	gamma_cid13_p2	gamma_cid13_p3	gamma_cid13_p4	gamma_cid13_p5	gamma_cid14_p0
0.5	-0.4318257823797495	-0.07332748346093503	0.7353135419685995	1.266976646467456	-0.4360365661028687	-0.2160699256124329	-0.2566827103452316	0.8323201290268216	0.832320129026852	-0.1192940323209324	-0.1636041276317091	0.05930837553721754	-0.05751401170499343	-0.9928702615777246	-0.287904883531482	-0.6261280473567173	2.915164724486682	-0.1926923048176837	0.7846713440301478	-0.09717518215665326	2.053320641634508	2.053320641634583	0.1490567221773641	-0.07031552343044276	0.3139235855189869	-0.06410487825395289	-0.2092161854758285	0.01262431252493815	-0.01072022728975038	-0.2009704669615191	0.08396332629394229	0.05615845604025078	0.1931792646800135	-5.635438065882887	-26.04706935369168	6.836983290898271	-9.797160314728009	-518.7358402135217	-63.6049349950834	-24.0533641321634	1.119079381849421	0.7939177468590854	-0.5059940644119526	-1.69516155842201	0.8221980127175303	-0.2425084023999071	1.147735153104013	-1.316923335876223	-1.316923335876235	0.09688789027454371	0.1912590615703999	-0.5349313728619097	0.6044537362095652	-6.664366876331313e-07	-4.671482981787683e-07	3.249177819503451e-06	1.758182106012552e-07	-7.187227509942464e-07	6.581256420743017e-07	-5.645625277182137e-07
0.51	-0.441695949882586	-0.07616647934954081	0.729028362966157	1.29603775012123	-0.4379238371431033	-0.2082338850218881	-0.2575988906394295	0.8527844394521695	0.8527844394522142	-0.1178036719264973	-0.1642973375777892	0.06241974890830898	-0.05812700519938601	-0.9810138243859037	-0.2798698241647469	-0.63077193908064	2.896659096627003	-0.1847482373151546	0.7824316997473929	-0.08613078391075371	2.039268529797918	2.03926852979795	0.1490095366297873	-0.06832518298313164	0.3082865611454274	-0.05850395338284817	-0.216114146950334	0.01290836724325032	-0.01071110897367002	-0.2034380869388155	0.08436794669323186	0.05665660848512236	0.1983207300893256	-5.764656718116949	-26.20413918182447	6.820157439689789	-9.845288233835438	-523.1689608229033	-63.16522477774137	-23.09380153959841	1.241247138288756	0.8120080807542621	-0.4233551544180991	-1.98790465078877	0.7822182262772004	-0.2309247911367273	1.072306076033285	-1.490179869233619	-1.490179869240104	-0.05635357122279484	0.2037931916736722	-0.5877495095266292	0.5360762478426183	-6.544758380892863e-07	-3.669665566635634e-07	3.302391953691027e-06	2.036563181475736e-07	-6.906690843115631e-07	7.417006946830843e-07	-5.561769929181167e-07
0.52	-0.4514430887634168	-0.07892438303464447	0.7227007913608681	1.324901869246206	-0.4397313260868605	-0.2004234873441447	-0.2584067241680261	0.8731000638068076	0.8731000638068722	-0.1163139497463216	-0.1649704697883399	0.06547281972768221	-0.05868435656801119	-0.9682645371764731	-0.2716864428310578	-0.6346065679259857	2.875767818725408	-0.1767358855223699	0.7795427614677014	-0.07550582903684287	2.023583427493998	2.023583427493986	0.1489290793242524	-0.06629997632133033	0.3022630751749223	-0.05297645310047399	-0.2230121084247418	0.01319242196160523	-0.01070199065751933	-0.2059057069161129	0.08477256709252537	0.05715476093004303	0.2034621954987198	-5.898647125427689	-26.36165572620922	6.804869555471623	-9.920597218033992	-527.7012296565124	-62.79270953233194	-22.13649378306238	1.297649385371366	0.8235821402499446	-0.3441414886965641	-2.172291566805286	0.8358548707686202	-0.3723672017872253	1.063846478706249	-1.643521429342349	-1.643521429342358	0.09023353868290911	0.1982323044684331	-0.6122236922509777	0.5897688184634775	-6.415765569501363e-07	-2.700338619759196e-07	3.342623668589051e-06	2.358407957224122e-07	-6.664048690102537e-07	8.231901021729866e-07	-5.455861390794355e-07
0.53	-0.461058546379934	-0.08159983056252956	0.7163389313759955	1.353545602835206	-0.441458318614539	-0.1926448540031988	-0.2591104381699336	0.8932508299585545	0.8932508299585574	-0.1148252614253075	-0.1656229628076283	0.06846377873212467	-0.05918674323993588	-0.9546862397965767	-0.2633886821714838	-0.6376271944109371	2.852597627706627	-0.1686560153813577	0.776079138556393	-0.06532838603403247	2.006310016808859	2.006310016808832	0.1488020368722842	-0.06419893167368425	0.2958688040330001	-0.04751636373367624	-0.2297498895976202	0.01332344932003133	-0.01062500733059068	-0.2083808909497118	0.08514603961163711	0.05741730438865777	0.2084114836337355	-6.04286869827682	-26.41143588965621	6.768268464831075	-9.868449907219494	-532.1300491233552	-62.26114695647918	-21.18576363508134	1.408941028637466	0.8350806642543459	-0.2604187647303335	-2.446677851721069	0.7946624805097415	-0.3495228808752217	0.9809810076360839	-1.808110790236389	-1.808110790238666	-0.06509220397751027	0.2166883408789392	-0.6619876437537541	0.5214496370656826	-6.232183622889853e-07	-1.764392161160624e-07	3.359683375112218e-06	2.638906720481904e-07	-6.377330948822876e-07	8.972782363108104e-07	-5.315480047404191e-07
0.54	-0.4705340167997849	-0.08419185895673025	0.709950986019006	1.381946175517545	-0.4431043905618611	-0.1849040895003715	-0.2597151201825035	0.9132210900230091	0.9132210900229815	-0.1133380273421613	-0.1662543158212735	0.07138900326143058	-0.05963506488993701	-0.9402670978431408	-0.2550026160941729	-0.6398236423493411	2.827135637395576	-0.1605517694506601	0.7719689938421797	-0.05569943116851928	1.987482210038251	1.987482210038209	0.1486382317466825	-0.06207197518738473	0.2891161801474428	-0.04216344871576614	-0.236487670770607	0.01345447667847047	-0.01054802400338494	-0.210856074983316	0.08551951213076793	0.05767984784729335	0.213360771768628	-6.190608830292599	-26.46159041002804	6.73286056876281	-9.850539207366094	-536.6444849384511	-61.79241996510856	-20.24613580403745	1.465818300079133	0.8412432237973555	-0.1793057793870797	-2.630651425259454	0.8407300287057137	-0.5016715623682053	0.9541488512467453	-1.954400646436086	-1.954400646436078	0.08288100395619394	0.2034146721991108	-0.683894240977908	0.5683339486859655	-5.988205186247694e-07	-8.653773066141614e-08	3.351105965986607e-06	2.873660959281996e-07	-6.041848726907859e-07	9.631777275910153e-07	-5.136958579329469e-07
0.55	-0.4798613906947246	-0.08669968273232259	0.7035451993878548	1.410081123639429	-0.4446692217052886	-0.1772073360857066	-0.2602262234836147	0.9329954555214963	0.9329954555214783	-0.1118525881159537	-0.1668640500496643	0.07424500765352605	-0.06003026494277677	-0.9250779476438251	-0.2465558258027708	-0.6411935837879713	2.799486455511807	-0.1524145700578589	0.7672812878990292	-0.04662873596347574	1.967141713288148	1.967141713288131	0.1484380663711421	-0.05987313968640812	0.2820314564736079	-0.03689622347599931	-0.2430224454694913	0.01334716160311255	-0.01039751917429755	-0.2134025820746644	0.08592099148069807	0.05777592738529973	0.2180961376733246	-6.327361679655903	-26.43839805180633	6.682358369246571	-9.741002673126824	-541.0448873649842	-61.23733664771019	-19.31990212854814	1.564836023483048	0.8474039493281295	-0.09494048930295783	-2.887281178757247	0.7997927783640557	-0.467792495998524	0.8674038185830288	-2.111149853083276	-2.111149853079437	-0.07311718725946761	0.2290658346031896	-0.7287069032136142	0.5025828868693942	-5.699268443628524e-07	-7.380226452516675e-09	3.310520934639442e-06	3.048926477310228e-07	-5.673347911095919e-07	1.017574959471795e-06	-4.92874780015696e-07
0.5600000000000001	-0.4890329985589458	-0.08912283720149755	0.6971298929096769	1.437928534020711	-0.4461527652780286	-0.1695605542076123	-0.2606498450399851	0.9525589609197108	0.9525589609197249	-0.1103694809192775	-0.167451606353961	0.07702857571435792	-0.06037345952816937	-0.9091138916994991	-0.2380687548106951	-0.6417276117546812	2.769628089275181	-0.1442942553131893	0.761974686527473	-0.03820308222043982	1.945310189986611	1.94531018998662	0.1481718258375864	-0.05763639036317763	0.2746289138946807	-0.03176235522633705	-0.2495572201683718	0.01323984652776392	-0.01024701434483822	-0.2159490891660284	0.08632247083062909	0.05787200692331198	0.2228315035780206	-6.467273145171734	-26.4152489004919	6.632546310656903	-9.667613847154591	-545.5282916106978	-60.74099033311703	-18.4089514111701	1.620799449081167	0.8492993639321121	-0.01212308500298496	-3.072488295830599	0.8373530990794057	-0.6254506480493514	0.8251405588451874	-2.252605956722815	-2.252605956722825	0.0696659723530994	0.2109974366498805	-0.7474580219963207	0.5416625506650714	-5.356381733836943e-07	5.888450026148704e-08	3.231526756626414e-06	3.152805530412229e-07	-5.265224782607673e-07	1.058169480073266e-06	-4.68490984766711e-07
0.5700000000000001	-0.4980413523884459	-0.09146103182435976	0.6907134104241065	1.465466764766735	-0.4475550775141241	-0.1619698065975833	-0.260992465637201	0.9718968668371893	0.9718968668371769	-0.108889150812227	-0.1680164904359792	0.07973661685754756	-0.06066581712508275	-0.8924338741756423	-0.2295733384982601	-0.6414285806087734	2.737663037537397	-0.1361745041723727	0.7560769219519359	-0.03045175829330011	1.922032960747849	1.922032960747832	0.1478794179520005	-0.05533802202879154	0.2669306289923255	-0.02673372050590903	-0.2558557500009747	0.01302499662585965	-0.01001734444267905	-0.2184741354015082	0.08664493874632707	0.05774602033209788	0.2273169805809861	-6.626719722519357	-26.28700880250366	6.56000706621025	-9.453351954499865	-549.8178140206162	-60.09844263076526	-17.5146684124241	1.709973050441966	0.849251685831402	0.07186123966114034	-3.311857924497331	0.79793420657328	-0.5869923030162819	0.7305201489580485	-2.400895381946794	-2.400895381950757	-0.08082469797049835	0.2402728179589344	-0.7882679539703628	0.4793923494600956	-4.987440451028702e-07	1.191036023752407e-07	3.133597226170056e-06	3.218171664130083e-07	-4.841822062214576e-07	1.086915064289776e-06	-4.41984421936623e-07
